<svg xmlns="http://www.w3.org/2000/svg" viewBox="0 0 24 24" stroke-width="1" width="34" height="34" color="#000000"><defs><style>.cls-637b8d40f95e86b59c57a30b-1{fill:none;stroke:currentColor;stroke-miterlimit:10;}</style></defs><g id="roll_brush" data-name="roll brush"><path class="cls-637b8d40f95e86b59c57a30b-1" d="M18.7,9.11h-1V7.2A5.75,5.75,0,0,0,12,1.44h-.21A5.75,5.75,0,0,0,7,4.41l-.13.26A6.5,6.5,0,0,0,6.25,7.2h0A4.78,4.78,0,0,0,1.44,12a1.27,1.27,0,0,0,0,.2,4.8,4.8,0,0,0,4.78,4.6H18.7a3.83,3.83,0,0,0,2.72-1.13,3.9,3.9,0,0,0,1.11-2.45,2.26,2.26,0,0,0,0-.26A3.84,3.84,0,0,0,18.7,9.11Z"></path><line class="cls-637b8d40f95e86b59c57a30b-1" x1="11.99" y1="16.79" x2="11.99" y2="23.5"></line><path class="cls-637b8d40f95e86b59c57a30b-1" d="M4.32,22.54H6.23a1.92,1.92,0,0,0,1.92-1.92V16.79"></path><path class="cls-637b8d40f95e86b59c57a30b-1" d="M15.83,16.79v3.83a1.91,1.91,0,0,0,1.91,1.92h1.92"></path></g></svg>