<svg id="Layer_1" data-name="Layer 1" xmlns="http://www.w3.org/2000/svg" viewBox="0 0 24 24" stroke-width="1" width="45" height="45" color="#000000"><defs><style>.cls-637b85d4f95e86b59c57a170-1{fill:none;stroke:currentColor;stroke-miterlimit:10;}</style></defs><path class="cls-637b85d4f95e86b59c57a170-1" d="M2.43,11H21.57a0,0,0,0,1,0,0v0a7.65,7.65,0,0,1-7.65,7.65H10.09A7.65,7.65,0,0,1,2.43,11v0a0,0,0,0,1,0,0Z"></path><path class="cls-637b85d4f95e86b59c57a170-1" d="M1.48,18.67h21a0,0,0,0,1,0,0v0A3.83,3.83,0,0,1,18.7,22.5H5.3a3.83,3.83,0,0,1-3.83-3.83v0a0,0,0,0,1,0,0Z"></path><path class="cls-637b85d4f95e86b59c57a170-1" d="M7.22.5c0,1.11-1,1.11-1,2.23s1,1.12,1,2.23-1,1.12-1,2.24"></path><path class="cls-637b85d4f95e86b59c57a170-1" d="M13,1.46c0,1.11-1,1.11-1,2.23s1,1.11,1,2.23S12,7,12,8.15"></path><path class="cls-637b85d4f95e86b59c57a170-1" d="M18.7.5c0,1.11-1,1.11-1,2.23s1,1.12,1,2.23-1,1.12-1,2.24"></path></svg>