<svg id="Layer_1" data-name="Layer 1" xmlns="http://www.w3.org/2000/svg" viewBox="0 0 24 24" stroke-width="1" width="45" height="45" color="#000000"><defs><style>.cls-637630c1c3a86d32eae6f038-1{fill:none;stroke:currentColor;stroke-miterlimit:10;}</style></defs><line class="cls-637630c1c3a86d32eae6f038-1" x1="12" y1="4.36" x2="12" y2="1.5"></line><line class="cls-637630c1c3a86d32eae6f038-1" x1="12" y1="22.5" x2="12" y2="19.64"></line><line class="cls-637630c1c3a86d32eae6f038-1" x1="19.64" y1="12" x2="22.5" y2="12"></line><line class="cls-637630c1c3a86d32eae6f038-1" x1="1.5" y1="12" x2="4.36" y2="12"></line><path class="cls-637630c1c3a86d32eae6f038-1" d="M22.5,13V12A10.51,10.51,0,1,0,20,18.83"></path><path class="cls-637630c1c3a86d32eae6f038-1" d="M9.14,8.18H12a1.92,1.92,0,0,1,1.91,1.91h0A1.91,1.91,0,0,1,12,12h0a1.91,1.91,0,0,1,1.91,1.91h0A1.92,1.92,0,0,1,12,15.82H9.14"></path></svg>