<svg id="Layer_1" data-name="Layer 1" xmlns="http://www.w3.org/2000/svg" viewBox="0 0 24 24" stroke-width="1" width="45" height="45" color="#000000"><defs><style>.cls-637b8a2bf95e86b59c57a264-1{fill:none;stroke:currentColor;stroke-miterlimit:10;}</style></defs><path class="cls-637b8a2bf95e86b59c57a264-1" d="M15.91,10.53h4.88a2,2,0,0,1,2,2v7.82a2,2,0,0,1-2,2H14.93l-1.42-2.12a1.81,1.81,0,0,0-3,0L9.07,22.26H3.21a2,2,0,0,1-2-2V12.49a2,2,0,0,1,2-2H8.09"></path><line class="cls-637b8a2bf95e86b59c57a264-1" x1="4.18" y1="14.44" x2="6.14" y2="14.44"></line><line class="cls-637b8a2bf95e86b59c57a264-1" x1="4.18" y1="18.35" x2="6.14" y2="18.35"></line><circle class="cls-637b8a2bf95e86b59c57a264-1" cx="12" cy="10.53" r="0.98"></circle><path class="cls-637b8a2bf95e86b59c57a264-1" d="M8.55,7.08a4.87,4.87,0,0,1,6.9,0"></path><path class="cls-637b8a2bf95e86b59c57a264-1" d="M5.78,4.32a8.79,8.79,0,0,1,12.44,0"></path></svg>