<svg id="Layer_1" data-name="Layer 1" xmlns="http://www.w3.org/2000/svg" viewBox="0 0 24 24" stroke-width="1" width="45" height="45" color="#000000"><defs><style>.cls-637b7f18f95e86b59c579fe8-1,.cls-637b7f18f95e86b59c579fe8-2{fill:none;stroke:currentColor;stroke-miterlimit:10;}.cls-637b7f18f95e86b59c579fe8-2{stroke-linecap:square;}</style></defs><path class="cls-637b7f18f95e86b59c579fe8-1" d="M5.32,1.5H18.68a1.91,1.91,0,0,1,1.91,1.91V14.86a0,0,0,0,1,0,0H3.41a0,0,0,0,1,0,0V3.41A1.91,1.91,0,0,1,5.32,1.5Z"></path><path class="cls-637b7f18f95e86b59c579fe8-1" d="M20.59,14.86H3.41L1.58,20.34a1.82,1.82,0,0,0-.08.52h0A1.65,1.65,0,0,0,3.14,22.5H20.86a1.65,1.65,0,0,0,1.64-1.64h0a1.82,1.82,0,0,0-.08-.52Z"></path><line class="cls-637b7f18f95e86b59c579fe8-1" x1="10.09" y1="19.64" x2="13.91" y2="19.64"></line><polyline class="cls-637b7f18f95e86b59c579fe8-2" points="8.18 10.09 11.04 7.23 12.96 9.14 15.82 6.27"></polyline></svg>