<svg id="Layer_1" data-name="Layer 1" xmlns="http://www.w3.org/2000/svg" viewBox="0 0 24 24" stroke-width="1" width="45" height="45" color="#000000"><defs><style>.cls-637b74f4f95e86b59c579f02-1{fill:none;stroke:currentColor;stroke-miterlimit:10;}</style></defs><path class="cls-637b74f4f95e86b59c579f02-1" d="M22.5,19.65h0a2.86,2.86,0,0,1-2.86,2.86H4.36A2.86,2.86,0,0,1,1.5,19.65h0a1.9,1.9,0,0,1,1.91-1.91H9.14l.95,1h3.82l.95-1h5.73A1.9,1.9,0,0,1,22.5,19.65Z"></path><path class="cls-637b74f4f95e86b59c579f02-1" d="M16.77,5.33h1.91a1.92,1.92,0,0,1,1.91,1.91v10.5"></path><path class="cls-637b74f4f95e86b59c579f02-1" d="M3.41,17.74V7.24A1.92,1.92,0,0,1,5.32,5.33H7.23"></path><path class="cls-637b74f4f95e86b59c579f02-1" d="M12,8.75h0A3.93,3.93,0,0,1,9.14,5V2.72L12,1.89l2.89.83V5A3.93,3.93,0,0,1,12,8.75Z"></path></svg>