<svg viewBox="0 0 1000 1004.1441" xmlns="http://www.w3.org/2000/svg"><path d="m875 21.144c0-12-9-21-21-21h-708c-12 0-21 9-21 21v458c0 3 1 5 2 8v1c1 2 2 4 4 6 4 4 10 6 15 6h708c5 0 9-2 12-4 0 0 1 0 1-1h1c1-1 2-3 3-4s1-2 2-3c0-1 1-2 1-4 0-1 1-2 1-4zm-42 21v377l-192-244c-3-5-9-8-15-8-7-1-12 2-16 7l-155 172-110-70c-9-5-19-4-26 3l-152 150v-387zm-22 416h-614l139-138 111 71c9 5 20 4 27-4l150-167zm-40 125h-542c-11 0-21 10-21 21s10 21 21 21h542c11 0 21-9 21-21s-10-21-21-21zm0 125h-542c-11 0-21 10-21 21s10 21 21 21h542c11 0 21-9 21-21s-10-21-21-21zm0 125h-542c-11 0-21 10-21 21s10 21 21 21h542c11 0 21-9 21-21s-10-21-21-21zm0 125h-542c-11 0-21 10-21 21s10 21 21 21h542c11 0 21-9 21-21s-10-21-21-21zm-438-708c46 0 84-37 84-83s-38-84-84-84-83 38-83 84 37 83 83 83zm0-125c23 0 42 19 42 42s-19 41-42 41-41-18-41-41 18-42 41-42z"/></svg>