<svg viewBox="0 0 1024 1063.18" xmlns="http://www.w3.org/2000/svg"><path d="M0 21.333h1024v1024H0zm977.455 46.545H46.545v930.91h930.91zM39.75 905.418l-32.908-32.91 327.354-327.4L600.9 811.348l177.85-177.85 238.5 238.964-32.954 32.86-205.59-205.963L600.9 877.162l-266.704-266.24zm561.152-662.063c61.952 0 112.175 50.222 112.175 112.175s-50.222 112.175-112.175 112.175c-61.952 0-112.175-50.222-112.175-112.175.08-61.92 50.254-112.095 112.167-112.175h.008zm0 177.803c36.246 0 65.63-29.383 65.63-65.63S637.147 289.9 600.9 289.9c-36.246 0-65.63 29.383-65.63 65.63.054 36.224 29.405 65.575 65.625 65.628h.005z"/></svg>