<svg height="32" viewBox="0 0 32 32" width="32" xmlns="http://www.w3.org/2000/svg"><path d="m23 9h6a2 2 0 0 0 2-2v-4a2 2 0 0 0 -2-2h-6a2 2 0 0 0 -2 2v1h-10v-1a2 2 0 0 0 -2-2h-6a2 2 0 0 0 -2 2v4a2 2 0 0 0 2 2h6a2 2 0 0 0 2-2v-1h4v20a2.0023 2.0023 0 0 0 2 2h4v1a2 2 0 0 0 2 2h6a2 2 0 0 0 2-2v-4a2 2 0 0 0 -2-2h-6a2 2 0 0 0 -2 2v1h-4v-9h4v1a2 2 0 0 0 2 2h6a2 2 0 0 0 2-2v-4a2 2 0 0 0 -2-2h-6a2 2 0 0 0 -2 2v1h-4v-9h4v1a2 2 0 0 0 2 2zm0-6h6v4h-6zm-14 4h-6v-4h6zm14 18h6v4h-6zm0-11h6v4h-6z" transform="translate(0 .0049)"/><path d="m0 0h32v32h-32z" fill="none"/></svg>