<svg viewBox="0 0 1024.001 1068.42" xmlns="http://www.w3.org/2000/svg"><path d="M201.077 114.424h621.847c110.998.132 200.944 90.078 201.076 201.064v444.057c-.132 110.998-90.078 200.944-201.064 201.076h-621.86C90.078 960.49.132 870.544 0 759.558V315.5c.132-110.998 90.078-200.944 201.064-201.076h.013zm621.848 799.65c85.302-.105 154.425-69.227 154.53-154.52V315.5c-.105-85.302-69.227-154.425-154.52-154.53H201.078c-85.302.105-154.425 69.227-154.53 154.52v444.054c.105 85.302 69.227 154.425 154.52 154.53h.01zm-512-592.01L741.843 537.52l-430.918 215.46zm326.75 215.458L357.47 397.374V677.67z"/></svg>