<svg xmlns="http://www.w3.org/2000/svg" viewBox="0 0 24 24" stroke-width="1" width="45" height="45" color="#000000"><defs><style>.cls-637b8170f95e86b59c57a02d-1{fill:none;stroke:currentColor;stroke-miterlimit:10;}</style></defs><g id="Clipboard"><path class="cls-637b8170f95e86b59c57a02d-1" d="M20.59,2.45V22.5H3.41v-20H8.18v1a1.92,1.92,0,0,0,1.91,1.91h3.82a1.92,1.92,0,0,0,1.91-1.91v-1Z"></path><line class="cls-637b8170f95e86b59c57a02d-1" x1="9.14" y1="10.09" x2="14.86" y2="10.09"></line><line class="cls-637b8170f95e86b59c57a02d-1" x1="12" y1="7.23" x2="12" y2="12.95"></line><line class="cls-637b8170f95e86b59c57a02d-1" x1="6.27" y1="18.68" x2="17.73" y2="18.68"></line><line class="cls-637b8170f95e86b59c57a02d-1" x1="6.27" y1="14.86" x2="17.73" y2="14.86"></line><path class="cls-637b8170f95e86b59c57a02d-1" d="M15.82,1.5V3.41a1.92,1.92,0,0,1-1.91,1.91H10.09A1.92,1.92,0,0,1,8.18,3.41V1.5Z"></path></g></svg>