<svg id="Layer_1" data-name="Layer 1" xmlns="http://www.w3.org/2000/svg" viewBox="0 0 24 24" stroke-width="1" width="34" height="34" color="#000000"><defs><style>.cls-637b7f18f95e86b59c57a005-1{fill:none;stroke:currentColor;stroke-miterlimit:10;}</style></defs><path class="cls-637b7f18f95e86b59c57a005-1" d="M15.82,7.23H8.18A1.92,1.92,0,0,1,6.27,5.32V1.5H17.73V5.32A1.92,1.92,0,0,1,15.82,7.23Z"></path><path class="cls-637b7f18f95e86b59c57a005-1" d="M8.18,17.73h7.64a1.91,1.91,0,0,1,1.91,1.91V22.5a0,0,0,0,1,0,0H6.27a0,0,0,0,1,0,0V19.64A1.91,1.91,0,0,1,8.18,17.73Z"></path><polygon class="cls-637b7f18f95e86b59c57a005-1" points="15.82 17.73 8.18 17.73 9.14 7.23 14.86 7.23 15.82 17.73"></polygon><line class="cls-637b7f18f95e86b59c57a005-1" x1="10.09" y1="4.36" x2="10.09" y2="1.5"></line><line class="cls-637b7f18f95e86b59c57a005-1" x1="13.91" y1="4.36" x2="13.91" y2="1.5"></line></svg>