<?xml version="1.0" encoding="UTF-8"?>
<svg xmlns="http://www.w3.org/2000/svg" xmlns:xlink="http://www.w3.org/1999/xlink" width="34px" height="34px" viewBox="0 0 34 34" version="1.1">
<g id="surface1">
<path style=" stroke:none;fill-rule:nonzero;fill:rgb(0%,0%,0%);fill-opacity:1;" d="M 4.351562 9.945312 L 10.074219 9.945312 C 9.503906 12.058594 9.179688 14.453125 9.179688 17 L 9.945312 17 C 9.945312 14.4375 10.273438 12.035156 10.84375 9.945312 L 16.617188 9.945312 L 16.617188 17 L 17.382812 17 L 17.382812 9.945312 L 23.15625 9.945312 C 23.726562 12.035156 24.054688 14.4375 24.054688 17 L 24.820312 17 C 24.820312 14.453125 24.496094 12.058594 23.929688 9.945312 L 29.648438 9.945312 C 30.820312 12.035156 31.492188 14.4375 31.492188 17 L 32.257812 17 C 32.257812 8.585938 25.414062 1.742188 17.003906 1.742188 C 8.589844 1.742188 1.742188 8.585938 1.742188 17 L 2.507812 17 C 2.507812 14.4375 3.179688 12.035156 4.351562 9.945312 Z M 11.070312 9.179688 C 12.261719 5.378906 14.289062 2.804688 16.617188 2.546875 L 16.617188 9.179688 Z M 17.382812 9.179688 L 17.382812 2.546875 C 19.710938 2.804688 21.738281 5.378906 22.929688 9.179688 Z M 29.183594 9.179688 L 23.703125 9.179688 C 22.8125 6.292969 21.453125 4.023438 19.824219 2.789062 C 23.742188 3.566406 27.089844 5.929688 29.183594 9.179688 Z M 14.175781 2.789062 C 12.550781 4.023438 11.1875 6.292969 10.296875 9.179688 L 4.816406 9.179688 C 6.910156 5.929688 10.257812 3.566406 14.175781 2.789062 Z M 24.054688 20.1875 L 24.054688 20.761719 L 20.1875 19.804688 L 17.265625 19.804688 C 16.660156 19.804688 16.074219 20.027344 15.617188 20.425781 L 15.113281 20.867188 L 9.945312 20.867188 L 9.945312 20.1875 C 9.945312 19.976562 9.773438 19.804688 9.5625 19.804688 L 2.125 19.804688 L 2.125 20.570312 L 9.179688 20.570312 L 9.179688 29.367188 L 2.125 29.367188 L 2.125 30.132812 L 9.5625 30.132812 C 9.773438 30.132812 9.945312 29.960938 9.945312 29.75 L 9.945312 29.070312 L 10.957031 29.070312 L 13.242188 32.304688 C 13.527344 32.621094 13.921875 32.785156 14.320312 32.785156 C 14.609375 32.785156 14.898438 32.699219 15.148438 32.519531 L 15.832031 32.039062 C 15.875 32.054688 15.90625 32.085938 15.949219 32.097656 C 16.074219 32.128906 16.199219 32.144531 16.320312 32.144531 C 16.574219 32.144531 16.820312 32.078125 17.042969 31.949219 L 17.925781 31.441406 C 18.089844 31.5 18.253906 31.542969 18.429688 31.542969 C 18.671875 31.542969 18.921875 31.480469 19.148438 31.347656 L 20.035156 30.835938 C 20.195312 30.894531 20.363281 30.9375 20.535156 30.9375 C 20.78125 30.9375 21.027344 30.875 21.257812 30.746094 C 21.851562 30.398438 22.082031 29.691406 21.886719 29.070312 L 24.054688 29.070312 L 24.054688 29.75 C 24.054688 29.960938 24.226562 30.132812 24.4375 30.132812 L 31.875 30.132812 L 31.875 29.367188 L 24.820312 29.367188 L 24.820312 20.570312 L 31.875 20.570312 L 31.875 19.804688 L 24.4375 19.804688 C 24.226562 19.804688 24.054688 19.976562 24.054688 20.1875 Z M 20.871094 30.082031 C 20.546875 30.269531 20.128906 30.15625 19.941406 29.832031 L 18.347656 27.074219 L 17.6875 27.453125 L 19.355469 30.34375 L 18.765625 30.683594 C 18.441406 30.875 18.023438 30.761719 17.835938 30.4375 L 16.773438 28.597656 L 16.507812 28.136719 L 15.847656 28.515625 L 16.113281 28.976562 L 17.175781 30.816406 C 17.175781 30.816406 17.175781 30.816406 17.175781 30.820312 L 17.25 30.945312 L 16.660156 31.285156 C 16.503906 31.375 16.320312 31.398438 16.148438 31.351562 C 15.972656 31.304688 15.824219 31.195312 15.734375 31.039062 L 14.671875 29.195312 L 14.007812 29.578125 L 15.070312 31.417969 C 15.070312 31.417969 15.070312 31.421875 15.070312 31.421875 L 15.160156 31.574219 L 14.710938 31.894531 C 14.429688 32.089844 14.042969 32.046875 13.839844 31.824219 L 11.46875 28.464844 C 11.398438 28.363281 11.28125 28.304688 11.15625 28.304688 L 9.945312 28.304688 L 9.945312 21.632812 L 14.238281 21.632812 L 12.234375 23.386719 C 12.085938 23.515625 11.996094 23.703125 11.988281 23.898438 C 11.980469 24.09375 12.058594 24.285156 12.199219 24.425781 C 13.101562 25.328125 14.539062 25.410156 15.539062 24.609375 L 16.605469 23.757812 L 18.359375 23.757812 L 21.121094 29.152344 C 21.308594 29.476562 21.195312 29.894531 20.871094 30.082031 Z M 21.542969 28.304688 L 18.933594 23.199219 C 18.867188 23.074219 18.734375 22.992188 18.59375 22.992188 L 16.46875 22.992188 C 16.382812 22.992188 16.296875 23.023438 16.230469 23.078125 L 15.058594 24.011719 C 14.363281 24.566406 13.367188 24.515625 12.734375 23.960938 L 16.121094 21 C 16.4375 20.722656 16.84375 20.570312 17.265625 20.570312 L 20.09375 20.558594 L 24.054688 21.550781 L 24.054688 28.304688 Z M 21.542969 28.304688 "/>
</g>
</svg>
