<svg xmlns="http://www.w3.org/2000/svg" viewBox="0 0 24 24" stroke-width="1" width="45" height="45" color="#000000"><defs><style>.cls-6375f1aeb67f094e4896ca25-1,.cls-6375f1aeb67f094e4896ca25-2{fill:none;stroke:currentColor;stroke-miterlimit:10;}.cls-6375f1aeb67f094e4896ca25-1{stroke-linecap:square;}</style></defs><g id="reciept"><line class="cls-6375f1aeb67f094e4896ca25-1" x1="8.18" y1="9.16" x2="12.95" y2="9.16"></line><line class="cls-6375f1aeb67f094e4896ca25-1" x1="8.18" y1="12.98" x2="12.95" y2="12.98"></line><line class="cls-6375f1aeb67f094e4896ca25-1" x1="8.18" y1="16.8" x2="12.95" y2="16.8"></line><path class="cls-6375f1aeb67f094e4896ca25-1" d="M19.64,22.52H4.36A2.86,2.86,0,0,1,1.5,19.66V2.48L4,4.39,6.59,2.48,9.13,4.39l2.55-1.91,2.54,1.91,2.55-1.91V19.66a2.87,2.87,0,0,0,2.87,2.86Z"></path><line class="cls-6375f1aeb67f094e4896ca25-2" x1="4.36" y1="9.16" x2="6.27" y2="9.16"></line><line class="cls-6375f1aeb67f094e4896ca25-2" x1="4.36" y1="12.98" x2="6.27" y2="12.98"></line><line class="cls-6375f1aeb67f094e4896ca25-2" x1="4.36" y1="16.8" x2="6.27" y2="16.8"></line><path class="cls-6375f1aeb67f094e4896ca25-2" d="M18.68,10.11H22.5v9.55a2.87,2.87,0,0,1-5.73,0V10.11h1.91Z"></path></g></svg>