<svg viewBox="0 0 72 72" xmlns="http://www.w3.org/2000/svg"><g style="fill:none;stroke:#000;stroke-linecap:round;stroke-linejoin:round;stroke-miterlimit:10;stroke-width:2"><path d="m47.4182 21.2818-9.3032 22.0876-7.5625-3.1853-7.9964 12.6134 3.3386 2.2033 6.005-9.7395 4.6507 1.8226 3.6864 1.5527 10.8677-25.8022z"/><path d="m12.0515 12.0154h47.897v47.8969h-47.897z"/><path d="m50.0686 36.085h9.7365"/><path d="m12.739 36.085h24.4401"/><path d="m45.0242 47.9928h14.6587"/><path d="m12.739 47.9928h8.0796"/><path d="m48.1334 40.4444.1175 18.926"/><path d="m48.033 12.0588.0037 5.1228"/><path d="m36.1837 51.6503v7.9229"/><path d="m36.1837 12.3297v25.501"/><path d="m24.2253 58.6134v.9598"/><path d="m24.2253 11.963v31.1364"/><path d="m55.1837 24.1772h4.0424"/><path d="m12.2635 24.1772h29.4879"/></g></svg>