<svg viewBox="0 0 1024.001 1068.467" xmlns="http://www.w3.org/2000/svg"><path d="M112.175 21.333h799.65c61.92.08 112.096 50.254 112.176 112.167v799.66c-.078 61.92-50.253 112.094-112.166 112.174h-799.66C50.255 1045.254.08 995.08 0 933.167v-799.66C.08 71.588 50.254 21.414 112.167 21.334h.008zm799.65 977.455c36.225-.053 65.576-29.404 65.63-65.624V133.508c-.054-36.225-29.405-65.576-65.625-65.63H112.174c-36.225.054-65.576 29.405-65.63 65.625V933.16c.054 36.224 29.405 65.575 65.625 65.628h.004zM222.022 243.355h579.49v579.49h-579.49zM754.967 289.9h-486.4v486.4h486.4zM357.47 266.628h-46.546v-88.902h46.545zm0 622.312h-46.546v-88.902h46.545zm177.803-622.312h-46.545v-88.902h46.545zm0 622.312h-46.545v-88.902h46.545zm177.803-622.312H666.53v-88.902h46.546zm0 622.312H666.53v-88.902h46.546zm-467.78-154.53h-88.903v-46.546h88.902zm622.31 0h-88.9v-46.546h88.9zm-622.31-177.804h-88.903V510.06h88.902zm622.31 0h-88.9V510.06h88.9zm-622.31-177.804h-88.903v-46.545h88.902zm622.31 0h-88.9v-46.545h88.9z"/></svg>