<svg enable-background="new 0 0 72 72" height="72" viewBox="0 0 72 72" width="72" xmlns="http://www.w3.org/2000/svg"><path d="m49.83 56.5h-27.66c-3.927 0-5.965-2.426-5.965-5.899v-27.661c0-3.513 2.147-7.44 5.965-7.44h27.66c3.817 0 7.375 3.928 7.375 7.44v27.66c0 3.474-3.448 5.9-7.375 5.9zm-27.66-37c-1.298 0-1.965 1.769-1.965 3.44v27.66c0 1.652.968 1.899 1.965 1.899h27.66c.997 0 3.375-.247 3.375-1.899v-27.66c0-1.672-2.077-3.44-3.375-3.44z"/><path d="m37.5 24.5h-1c-.553 0-1-.447-1-1s.447-1 1-1h1c.553 0 1 .447 1 1s-.447 1-1 1z"/><path d="m23.205 32.5c-.553 0-1-.447-1-1v-2.325c0-3.281-.705-6.675 4.857-6.675h5.438c.553 0 1 .447 1 1s-.447 1-1 1h-5.438c-3.563 0-2.857 1.178-2.857 4.675v2.325c0 .553-.447 1-1 1z"/><path d="m67.5 23.5h-5c-1.104 0-2-.896-2-2s.896-2 2-2h5c1.104 0 2 .896 2 2s-.896 2-2 2z"/><path d="m67.5 34.5h-5c-1.104 0-2-.896-2-2s.896-2 2-2h5c1.104 0 2 .896 2 2s-.896 2-2 2z"/><path d="m67.5 44.5h-5c-1.104 0-2-.896-2-2s.896-2 2-2h5c1.104 0 2 .896 2 2s-.896 2-2 2z"/><path d="m67.5 53.5h-5c-1.104 0-2-.896-2-2s.896-2 2-2h5c1.104 0 2 .896 2 2s-.896 2-2 2z"/><path d="m21.205 12.5c-1.104 0-2-.896-2-2v-5c0-1.104.896-2 2-2s2 .896 2 2v5c0 1.104-.895 2-2 2z"/><path d="m31.205 12.5c-1.104 0-2-.896-2-2v-5c0-1.104.896-2 2-2s2 .896 2 2v5c0 1.104-.895 2-2 2z"/><path d="m42.205 12.5c-1.104 0-2-.896-2-2v-5c0-1.104.896-2 2-2s2 .896 2 2v5c0 1.104-.895 2-2 2z"/><path d="m51.205 12.5c-1.104 0-2-.896-2-2v-5c0-1.104.896-2 2-2s2 .896 2 2v5c0 1.104-.895 2-2 2z"/><path d="m21.205 68.5c-1.104 0-2-.896-2-2v-5c0-1.104.896-2 2-2s2 .896 2 2v5c0 1.104-.895 2-2 2z"/><path d="m31.205 68.5c-1.104 0-2-.896-2-2v-5c0-1.104.896-2 2-2s2 .896 2 2v5c0 1.104-.895 2-2 2z"/><path d="m42.205 68.5c-1.104 0-2-.896-2-2v-5c0-1.104.896-2 2-2s2 .896 2 2v5c0 1.104-.895 2-2 2z"/><path d="m51.205 68.5c-1.104 0-2-.896-2-2v-5c0-1.104.896-2 2-2s2 .896 2 2v5c0 1.104-.895 2-2 2z"/><path d="m9.5 23.5h-5c-1.104 0-2-.896-2-2s.896-2 2-2h5c1.104 0 2 .896 2 2s-.896 2-2 2z"/><path d="m9.5 34.5h-5c-1.104 0-2-.896-2-2s.896-2 2-2h5c1.104 0 2 .896 2 2s-.896 2-2 2z"/><path d="m9.5 44.5h-5c-1.104 0-2-.896-2-2s.896-2 2-2h5c1.104 0 2 .896 2 2s-.896 2-2 2z"/><path d="m9.5 53.5h-5c-1.104 0-2-.896-2-2s.896-2 2-2h5c1.104 0 2 .896 2 2s-.896 2-2 2z"/></svg>