<svg enable-background="new 0 0 32 32" viewBox="0 0 32 32" xmlns="http://www.w3.org/2000/svg"><path d="m31 31.36h-30c-.199 0-.36-.161-.36-.36v-30h.72v28.377l6.314-13.529c.055-.119.171-.198.302-.207.137-.003.257.054.327.165l4.468 6.952 4.887-14.869c.045-.136.166-.233.309-.246.14-.012.278.059.349.184l6.266 11.336 6.107-10.579.623.36-6.426 11.13c-.064.111-.183.181-.312.181-.001 0-.002 0-.003 0-.13-.002-.249-.072-.312-.187l-6.175-11.172-4.865 14.804c-.043.132-.159.228-.296.245-.136.021-.272-.045-.348-.163l-4.525-7.038-6.485 13.896h29.435z"/><path d="m0 0h32v32h-32z" fill="none"/></svg>