<svg height="32" viewBox="0 0 32 32" width="32" xmlns="http://www.w3.org/2000/svg"><path d="m29.4146 19-1.7146-1.7148a2.97 2.97 0 0 0 .3-1.2852 3 3 0 1 0 -3 3 2.97 2.97 0 0 0 1.2864-.3l1.7136 1.7141v7.5859h-6v-3a7.0078 7.0078 0 0 0 -7-7h-6a7.008 7.008 0 0 0 -7 7v5h28v-9.5859a1.988 1.988 0 0 0 -.5854-1.4141zm-25.4146 6a5.006 5.006 0 0 1 5-5h6a5.0059 5.0059 0 0 1 5 5v3h-16z"/><path d="m12 4a5 5 0 1 1 -5 5 5 5 0 0 1 5-5m0-2a7 7 0 1 0 7 7 7 7 0 0 0 -7-7z"/><path d="m0 0h32v32h-32z" fill="none"/></svg>