<svg id="Layer_1" data-name="Layer 1" xmlns="http://www.w3.org/2000/svg" viewBox="0 0 24 24" stroke-width="1" width="34" height="34" color="#000000"><defs><style>.cls-637a50fc15c5759009400685-1{fill:none;stroke:currentColor;stroke-miterlimit:10;}.cls-637a50fc15c5759009400685-2{fill:currentColor;}</style></defs><rect class="cls-637a50fc15c5759009400685-1" x="1.5" y="1.5" width="21" height="21" rx="1.91"></rect><rect class="cls-637a50fc15c5759009400685-1" x="6.27" y="6.27" width="11.45" height="11.45"></rect><line class="cls-637a50fc15c5759009400685-1" x1="8.18" y1="4.36" x2="8.18" y2="6.27"></line><line class="cls-637a50fc15c5759009400685-1" x1="8.18" y1="19.64" x2="8.18" y2="17.73"></line><line class="cls-637a50fc15c5759009400685-1" x1="12" y1="4.36" x2="12" y2="6.27"></line><line class="cls-637a50fc15c5759009400685-1" x1="12" y1="19.64" x2="12" y2="17.73"></line><line class="cls-637a50fc15c5759009400685-1" x1="15.82" y1="4.36" x2="15.82" y2="6.27"></line><line class="cls-637a50fc15c5759009400685-1" x1="15.82" y1="19.64" x2="15.82" y2="17.73"></line><line class="cls-637a50fc15c5759009400685-1" x1="4.36" y1="15.82" x2="6.27" y2="15.82"></line><line class="cls-637a50fc15c5759009400685-1" x1="19.64" y1="15.82" x2="17.73" y2="15.82"></line><line class="cls-637a50fc15c5759009400685-1" x1="4.36" y1="12" x2="6.27" y2="12"></line><line class="cls-637a50fc15c5759009400685-1" x1="19.64" y1="12" x2="17.73" y2="12"></line><line class="cls-637a50fc15c5759009400685-1" x1="4.36" y1="8.18" x2="6.27" y2="8.18"></line><line class="cls-637a50fc15c5759009400685-1" x1="19.64" y1="8.18" x2="17.73" y2="8.18"></line><polygon class="cls-637a50fc15c5759009400685-2" points="12 12.96 9.14 12.96 12 8.18 12 12.96"></polygon><polygon class="cls-637a50fc15c5759009400685-2" points="12 11.04 14.86 11.04 12 15.82 12 11.04"></polygon></svg>