<?xml version="1.0" encoding="UTF-8"?>
<svg xmlns="http://www.w3.org/2000/svg" xmlns:xlink="http://www.w3.org/1999/xlink" width="34px" height="34px" viewBox="0 0 34 34" version="1.1">
<g id="surface1">
<path style=" stroke:none;fill-rule:evenodd;fill:rgb(27.843137%,28.627451%,37.254902%);fill-opacity:1;" d="M 7.792969 8.5 C 7.792969 6.542969 9.378906 4.957031 11.332031 4.957031 L 17 4.957031 C 23.691406 4.957031 29.042969 10.707031 29.042969 17.707031 C 29.042969 20.335938 28.289062 22.785156 26.996094 24.820312 C 26.257812 25.984375 25.734375 27.203125 25.734375 28.449219 L 25.734375 29.75 C 25.734375 30.140625 25.417969 30.457031 25.027344 30.457031 C 24.636719 30.457031 24.320312 30.140625 24.320312 29.75 L 24.320312 28.449219 C 24.320312 26.816406 24.996094 25.324219 25.800781 24.058594 C 26.949219 22.25 27.625 20.066406 27.625 17.707031 C 27.625 11.40625 22.828125 6.375 17 6.375 L 11.332031 6.375 C 10.160156 6.375 9.207031 7.328125 9.207031 8.5 L 9.207031 10.625 C 9.207031 10.699219 9.195312 10.777344 9.171875 10.847656 L 6.648438 18.417969 L 8.5 18.417969 C 8.890625 18.417969 9.207031 18.734375 9.207031 19.125 L 9.207031 24.792969 C 9.207031 25.183594 9.527344 25.5 9.917969 25.5 L 12.042969 25.5 C 12.433594 25.5 12.75 25.816406 12.75 26.207031 C 12.75 26.597656 12.433594 26.917969 12.042969 26.917969 L 9.917969 26.917969 C 8.742188 26.917969 7.792969 25.964844 7.792969 24.792969 L 7.792969 19.832031 L 5.667969 19.832031 C 5.4375 19.832031 5.226562 19.722656 5.09375 19.539062 C 4.957031 19.355469 4.921875 19.117188 4.996094 18.902344 L 7.792969 10.511719 Z M 7.792969 8.5 "/>
<path style=" stroke:none;fill-rule:evenodd;fill:rgb(27.843137%,28.627451%,37.254902%);fill-opacity:1;" d="M 10.625 12.75 C 10.625 10.792969 12.210938 9.207031 14.167969 9.207031 C 16.121094 9.207031 17.707031 10.792969 17.707031 12.75 C 17.707031 13.578125 17.425781 14.339844 16.949219 14.945312 L 19.054688 17.050781 C 19.660156 16.574219 20.421875 16.292969 21.25 16.292969 C 23.207031 16.292969 24.792969 17.878906 24.792969 19.832031 C 24.792969 21.789062 23.207031 23.375 21.25 23.375 C 19.292969 23.375 17.707031 21.789062 17.707031 19.832031 C 17.707031 19.21875 17.863281 18.640625 18.140625 18.140625 L 15.859375 15.859375 C 15.359375 16.136719 14.78125 16.292969 14.167969 16.292969 C 12.210938 16.292969 10.625 14.707031 10.625 12.75 Z M 14.167969 10.625 C 12.992188 10.625 12.042969 11.578125 12.042969 12.75 C 12.042969 13.921875 12.992188 14.875 14.167969 14.875 C 15.339844 14.875 16.292969 13.921875 16.292969 12.75 C 16.292969 11.578125 15.339844 10.625 14.167969 10.625 Z M 21.25 17.707031 C 20.078125 17.707031 19.125 18.660156 19.125 19.832031 C 19.125 21.007812 20.078125 21.957031 21.25 21.957031 C 22.421875 21.957031 23.375 21.007812 23.375 19.832031 C 23.375 18.660156 22.421875 17.707031 21.25 17.707031 Z M 21.25 17.707031 "/>
</g>
</svg>
